<?xml version="1.0" encoding="utf-8"?>
<!-- Generated by Mocodo 4.2.12 -->
<svg width="476" height="365" viewBox="0 0 476 365" xmlns="http://www.w3.org/2000/svg">
<rect x="0" y="0" width="476" height="365" fill="#ffffbf" stroke="none" stroke-width="0"/>

<!-- Association RECEVOIR -->
<g>
	<line x1="186" y1="246" x2="186" y2="60" stroke="#f46d43" stroke-width="2"/>
	<line x1="302" y1="60" x2="186" y2="60" stroke="#f46d43" stroke-width="2"/>
	<g>
		<path d="M211 35 a14 14 90 0 1 14 14 V60 h-78 V49 a14 14 90 0 1 14 -14" fill="#fdae61" stroke="#fdae61" stroke-width="0"/>
		<path d="M225 60 v11 a14 14 90 0 1 -14 14 H161 a14 14 90 0 1 -14 -14 V60 H78" fill="#fee090" stroke="#fee090" stroke-width="0"/>
		<rect x="147" y="35" width="78" height="50" fill="none" rx="14" stroke="#f46d43" stroke-width="2"/>
		<line x1="147" y1="60" x2="225" y2="60" stroke="#f46d43" stroke-width="1"/>
		<text x="154" y="52.75" fill="#000000" font-family="Verdana" font-size="12">RECEVOIR</text>
	</g>
	<text x="191" y="128" fill="#4575b4" font-family="Verdana" font-size="12">1,1</text>
	<text x="230" y="77" fill="#4575b4" font-family="Verdana" font-size="12">0,N</text>
</g>

<!-- Association CREER -->
<g>
	<line x1="414" y1="246" x2="414" y2="60" stroke="#f46d43" stroke-width="2"/>
	<line x1="302" y1="60" x2="414" y2="60" stroke="#f46d43" stroke-width="2"/>
	<g>
		<path d="M428 35 a14 14 90 0 1 14 14 V60 h-56 V49 a14 14 90 0 1 14 -14" fill="#fdae61" stroke="#fdae61" stroke-width="0"/>
		<path d="M442 60 v11 a14 14 90 0 1 -14 14 H400 a14 14 90 0 1 -14 -14 V60 H56" fill="#fee090" stroke="#fee090" stroke-width="0"/>
		<rect x="386" y="35" width="56" height="50" fill="none" rx="14" stroke="#f46d43" stroke-width="2"/>
		<line x1="386" y1="60" x2="442" y2="60" stroke="#f46d43" stroke-width="1"/>
		<text x="394" y="52.75" fill="#000000" font-family="Verdana" font-size="12">CREER</text>
	</g>
	<text x="419" y="179" fill="#4575b4" font-family="Verdana" font-size="12">1,1</text>
	<text x="352" y="77" fill="#4575b4" font-family="Verdana" font-size="12">0,N</text>
</g>

<!-- Association PROPOSER -->
<g>
	<line x1="186" y1="246" x2="62" y2="246" stroke="#f46d43" stroke-width="2"/>
	<line x1="62" y1="60" x2="62" y2="246" stroke="#f46d43" stroke-width="2"/>
	<g>
		<path d="M89 221 a14 14 90 0 1 14 14 V246 h-82 V235 a14 14 90 0 1 14 -14" fill="#fdae61" stroke="#fdae61" stroke-width="0"/>
		<path d="M103 246 v11 a14 14 90 0 1 -14 14 H35 a14 14 90 0 1 -14 -14 V246 H82" fill="#fee090" stroke="#fee090" stroke-width="0"/>
		<rect x="21" y="221" width="82" height="50" fill="none" rx="14" stroke="#f46d43" stroke-width="2"/>
		<line x1="21" y1="246" x2="103" y2="246" stroke="#f46d43" stroke-width="1"/>
		<text x="29" y="238.75" fill="#000000" font-family="Verdana" font-size="12">PROPOSER</text>
	</g>
	<text x="109" y="263" fill="#4575b4" font-family="Verdana" font-size="12">0,N</text>
	<text x="67" y="111" fill="#4575b4" font-family="Verdana" font-size="12">0,N</text>
</g>

<!-- Association AIMER -->
<g>
	<line x1="414" y1="246" x2="302" y2="246" stroke="#f46d43" stroke-width="2"/>
	<line x1="186" y1="246" x2="302" y2="246" stroke="#f46d43" stroke-width="2"/>
	<g>
		<path d="M315 221 a14 14 90 0 1 14 14 V246 h-54 V235 a14 14 90 0 1 14 -14" fill="#fdae61" stroke="#fdae61" stroke-width="0"/>
		<path d="M329 246 v11 a14 14 90 0 1 -14 14 H289 a14 14 90 0 1 -14 -14 V246 H54" fill="#fee090" stroke="#fee090" stroke-width="0"/>
		<rect x="275" y="221" width="54" height="50" fill="none" rx="14" stroke="#f46d43" stroke-width="2"/>
		<line x1="275" y1="246" x2="329" y2="246" stroke="#f46d43" stroke-width="1"/>
		<text x="282" y="238.75" fill="#000000" font-family="Verdana" font-size="12">AIMER</text>
	</g>
	<text x="334" y="263" fill="#4575b4" font-family="Verdana" font-size="12">0,N</text>
	<text x="241" y="263" fill="#4575b4" font-family="Verdana" font-size="12">0,N</text>
</g>

<!-- Entity TYPE_CUISINE -->
<g>
	<g>
		<rect x="9" y="26" width="106" height="25" fill="#abd9e9" stroke="none" stroke-width="0" opacity="1"/>
		<rect x="9" y="51" width="106" height="43" fill="#e0f3f8" stroke="none" stroke-width="0" opacity="1"/>
		<rect x="9" y="26" width="106" height="68" fill="none" stroke="#74add1" stroke-width="2" opacity="1"/>
		<line x1="9" y1="51" x2="115" y2="51" stroke="#74add1" stroke-width="1"/>
	</g>
	<text x="17" y="43.75" fill="#000000" font-family="Verdana" font-size="12">TYPE_CUISINE</text>
	<text x="14" y="68.8" fill="#000000" font-family="Verdana" font-size="12">id_type_cuisine</text>
	<line x1="14" y1="71" x2="109" y2="71" stroke="#000000" stroke-width="1"/>
	<text x="14" y="85.8" fill="#000000" font-family="Verdana" font-size="12">libelle</text>
</g>

<!-- Entity CRITIQUE -->
<g>
	<g>
		<rect x="257" y="9" width="90" height="25" fill="#abd9e9" stroke="none" stroke-width="0" opacity="1"/>
		<rect x="257" y="34" width="90" height="77" fill="#e0f3f8" stroke="none" stroke-width="0" opacity="1"/>
		<rect x="257" y="9" width="90" height="102" fill="none" stroke="#74add1" stroke-width="2" opacity="1"/>
		<line x1="257" y1="34" x2="347" y2="34" stroke="#74add1" stroke-width="1"/>
	</g>
	<text x="272" y="26.75" fill="#000000" font-family="Verdana" font-size="12">CRITIQUE</text>
	<text x="262" y="51.8" fill="#000000" font-family="Verdana" font-size="12">id_critique</text>
	<line x1="262" y1="54" x2="326" y2="54" stroke="#000000" stroke-width="1"/>
	<text x="262" y="68.8" fill="#000000" font-family="Verdana" font-size="12">note</text>
	<text x="262" y="85.8" fill="#000000" font-family="Verdana" font-size="12">commentaire</text>
	<text x="262" y="102.8" fill="#000000" font-family="Verdana" font-size="12">date_critique</text>
</g>

<!-- Entity RESTAURANT -->
<g>
	<g>
		<rect x="136" y="136" width="100" height="25" fill="#abd9e9" stroke="none" stroke-width="0" opacity="1"/>
		<rect x="136" y="161" width="100" height="195" fill="#e0f3f8" stroke="none" stroke-width="0" opacity="1"/>
		<rect x="136" y="136" width="100" height="220" fill="none" stroke="#74add1" stroke-width="2" opacity="1"/>
		<line x1="136" y1="161" x2="236" y2="161" stroke="#74add1" stroke-width="1"/>
	</g>
	<text x="145" y="153.75" fill="#000000" font-family="Verdana" font-size="12">RESTAURANT</text>
	<text x="141" y="178.8" fill="#000000" font-family="Verdana" font-size="12">id_restaurant</text>
	<line x1="141" y1="181" x2="223" y2="181" stroke="#000000" stroke-width="1"/>
	<text x="141" y="195.8" fill="#000000" font-family="Verdana" font-size="12">nom</text>
	<text x="141" y="212.8" fill="#000000" font-family="Verdana" font-size="12">type</text>
	<text x="141" y="229.8" fill="#000000" font-family="Verdana" font-size="12">opening_hours</text>
	<text x="141" y="246.8" fill="#000000" font-family="Verdana" font-size="12">cuisine</text>
	<text x="141" y="263.8" fill="#000000" font-family="Verdana" font-size="12">vegetarian</text>
	<text x="141" y="280.8" fill="#000000" font-family="Verdana" font-size="12">phone</text>
	<text x="141" y="297.8" fill="#000000" font-family="Verdana" font-size="12">website</text>
	<text x="141" y="314.8" fill="#000000" font-family="Verdana" font-size="12">departement</text>
	<text x="141" y="331.8" fill="#000000" font-family="Verdana" font-size="12">commune</text>
	<text x="141" y="348.8" fill="#000000" font-family="Verdana" font-size="12">etc(...)</text>
</g>

<!-- Entity UTILISATEUR -->
<g>
	<g>
		<rect x="361" y="187" width="106" height="25" fill="#abd9e9" stroke="none" stroke-width="0" opacity="1"/>
		<rect x="361" y="212" width="106" height="93" fill="#e0f3f8" stroke="none" stroke-width="0" opacity="1"/>
		<rect x="361" y="187" width="106" height="118" fill="none" stroke="#74add1" stroke-width="2" opacity="1"/>
		<line x1="361" y1="212" x2="467" y2="212" stroke="#74add1" stroke-width="1"/>
	</g>
	<text x="373" y="204.75" fill="#000000" font-family="Verdana" font-size="12">UTILISATEUR</text>
	<text x="366" y="229.8" fill="#000000" font-family="Verdana" font-size="12">id_utilisateur</text>
	<line x1="366" y1="232" x2="446" y2="232" stroke="#000000" stroke-width="1"/>
	<text x="366" y="246.8" fill="#000000" font-family="Verdana" font-size="12">nom</text>
	<text x="366" y="263.8" fill="#000000" font-family="Verdana" font-size="12">email</text>
	<text x="366" y="280.8" fill="#000000" font-family="Verdana" font-size="12">mot_de_passe</text>
	<text x="366" y="297.8" fill="#000000" font-family="Verdana" font-size="12">type_utilisateur</text>
</g>
</svg>